<svg width="620" height="172" viewBox="0 0 620 172" fill="none" xmlns="http://www.w3.org/2000/svg">
<rect width="620" height="172" rx="30" fill="#475672"/>
<path d="M170.4 58H177.2V107.6H199.2V114H170.4V58ZM231.194 86C231.194 90.2133 232.1 93.9733 233.914 97.28C235.78 100.587 238.314 103.2 241.514 105.12C244.714 107.04 248.34 108 252.394 108C256.5 108 260.127 107.04 263.274 105.12C266.474 103.2 268.98 100.587 270.794 97.28C272.66 93.9733 273.594 90.2133 273.594 86C273.594 81.7867 272.66 78.0267 270.794 74.72C268.98 71.4133 266.474 68.8 263.274 66.88C260.127 64.96 256.5 64 252.394 64C248.34 64 244.714 64.96 241.514 66.88C238.314 68.8 235.78 71.4133 233.914 74.72C232.1 78.0267 231.194 81.7867 231.194 86ZM223.994 86C223.994 81.8933 224.687 78.1067 226.074 74.64C227.514 71.12 229.514 68.08 232.074 65.52C234.634 62.9067 237.647 60.88 241.114 59.44C244.58 57.9467 248.34 57.2 252.394 57.2C256.5 57.2 260.26 57.9467 263.674 59.44C267.14 60.88 270.154 62.9067 272.714 65.52C275.274 68.08 277.247 71.12 278.634 74.64C280.074 78.1067 280.794 81.8933 280.794 86C280.794 90.0533 280.074 93.84 278.634 97.36C277.247 100.88 275.274 103.947 272.714 106.56C270.154 109.12 267.14 111.147 263.674 112.64C260.26 114.08 256.5 114.8 252.394 114.8C248.34 114.8 244.58 114.08 241.114 112.64C237.647 111.147 234.634 109.12 232.074 106.56C229.514 103.947 227.514 100.88 226.074 97.36C224.687 93.84 223.994 90.0533 223.994 86ZM339.597 92V85.6H365.597C365.597 89.4933 365.01 93.2 363.837 96.72C362.664 100.187 360.93 103.28 358.637 106C356.344 108.72 353.517 110.88 350.157 112.48C346.85 114.027 343.064 114.8 338.797 114.8C334.744 114.8 330.984 114.107 327.517 112.72C324.05 111.28 321.037 109.28 318.477 106.72C315.917 104.107 313.917 101.04 312.477 97.52C311.09 94 310.397 90.16 310.397 86C310.397 81.84 311.09 78 312.477 74.48C313.917 70.96 315.917 67.92 318.477 65.36C321.037 62.7467 324.05 60.7467 327.517 59.36C330.984 57.92 334.744 57.2 338.797 57.2C342.264 57.2 345.437 57.6533 348.317 58.56C351.25 59.4667 353.864 60.8 356.157 62.56C358.504 64.32 360.477 66.5067 362.077 69.12L357.277 73.52C355.517 70.5333 353.064 68.2133 349.917 66.56C346.77 64.8533 343.064 64 338.797 64C334.85 64 331.277 64.9333 328.077 66.8C324.877 68.6667 322.317 71.2533 320.397 74.56C318.53 77.8133 317.597 81.6267 317.597 86C317.597 90.32 318.53 94.1333 320.397 97.44C322.317 100.747 324.877 103.333 328.077 105.2C331.277 107.067 334.85 108 338.797 108C341.57 108 344.05 107.6 346.237 106.8C348.477 105.947 350.397 104.773 351.997 103.28C353.597 101.787 354.904 100.08 355.917 98.16C356.984 96.24 357.757 94.1867 358.237 92H339.597ZM402.828 86C402.828 90.2133 403.735 93.9733 405.548 97.28C407.415 100.587 409.948 103.2 413.148 105.12C416.348 107.04 419.975 108 424.028 108C428.135 108 431.761 107.04 434.908 105.12C438.108 103.2 440.615 100.587 442.428 97.28C444.295 93.9733 445.228 90.2133 445.228 86C445.228 81.7867 444.295 78.0267 442.428 74.72C440.615 71.4133 438.108 68.8 434.908 66.88C431.761 64.96 428.135 64 424.028 64C419.975 64 416.348 64.96 413.148 66.88C409.948 68.8 407.415 71.4133 405.548 74.72C403.735 78.0267 402.828 81.7867 402.828 86ZM395.628 86C395.628 81.8933 396.321 78.1067 397.708 74.64C399.148 71.12 401.148 68.08 403.708 65.52C406.268 62.9067 409.281 60.88 412.748 59.44C416.215 57.9467 419.975 57.2 424.028 57.2C428.135 57.2 431.895 57.9467 435.308 59.44C438.775 60.88 441.788 62.9067 444.348 65.52C446.908 68.08 448.881 71.12 450.268 74.64C451.708 78.1067 452.428 81.8933 452.428 86C452.428 90.0533 451.708 93.84 450.268 97.36C448.881 100.88 446.908 103.947 444.348 106.56C441.788 109.12 438.775 111.147 435.308 112.64C431.895 114.08 428.135 114.8 424.028 114.8C419.975 114.8 416.215 114.08 412.748 112.64C409.281 111.147 406.268 109.12 403.708 106.56C401.148 103.947 399.148 100.88 397.708 97.36C396.321 93.84 395.628 90.0533 395.628 86Z" fill="white"/>
</svg>
